# xmcd CD database file
#
# Track frame offsets:
#	150
#	12860
#	35222
#	52933
#	104745
#	132358
#	173626
#	186339
#	210980
#	237278
#	257878
#	296163
#	320255
#
# Disc length: 4519 seconds
#
# Revision: 1
# Processed by: cddbd v1.5.2PL0 Copyright (c) Steve Scherf et al.
# Submitted via: CDex 1.70beta2
#
DISCID=be11a50d
DTITLE=Various Artist - Jazz in Zürich CD1
DYEAR=2004
DGENRE=Jazz
TTITLE0=Eddie Brunner and His Original Teddies 
TTITLE1=Elsie und Siro Bianchi-Brunner 
TTITLE2=Hans Kennel Quintet
TTITLE3=Dollar Brand. African Piano 
TTITLE4=Alex Rohr Quartet 
TTITLE5=Charly Antolini
TTITLE6=Jazz Rock Experience J.R.E. 
TTITLE7=Metronome Quintet
TTITLE8=Benny Bailey und Jazz Live Trio
TTITLE9=DRS-Big Band 
TTITLE10=Remo Rau Memorial Quintet 
TTITLE11=Buddhas Gamblers 
TTITLE12=Robi Weber Quartet 
EXTD=YEAR: 2004
EXTT0=
EXTT1=
EXTT2=
EXTT3=
EXTT4=
EXTT5=
EXTT6=
EXTT7=
EXTT8=
EXTT9=
EXTT10=
EXTT11=
EXTT12=
PLAYORDER=
